<?xml version="1.0" standalone="no"?>
<!DOCTYPE svg PUBLIC "-//W3C//DTD SVG 1.1//EN" "http://www.w3.org/Graphics/SVG/1.1/DTD/svg11.dtd">
<svg xmlns="http://www.w3.org/2000/svg">
<metadata>Generated by Fontastic.me</metadata>
<defs>
<font id="sbp" horiz-adv-x="512">
<font-face font-family="sbp" units-per-em="512" ascent="480" descent="-32"/>
<missing-glyph horiz-adv-x="512" />

<glyph unicode="&#100;" d="M110 385c14 0 25 11 25 25 0 14-11 26-25 26-14 0-26-12-26-26 0-14 12-25 26-25z m0 42c9 0 17-7 17-17 0-9-8-17-17-17-10 0-17 8-17 17 0 10 7 17 17 17z m-12-80c0 22-17 39-39 39-21 0-38-18-38-39 0-21 17-38 38-38 22 0 39 17 39 38z m-67 0c0 16 13 29 28 29 16 0 29-13 29-29 0-15-13-28-29-28-15 0-28 13-28 28z m461-111c0 3-1 7-2 11 0 3-2 10-5 15-3 5-6 9-8 11-1 1-2 3-4 5-7 5-16 8-20 9-1 0-1 0-2 1-3 0-10 2-17 2-3 0-9-1-14-2-5-1-8-2-8-2 3 4 7 12 9 17 15 32 1 76 0 79-9 24-33 30-48 18-2-1-12-8-19-38-2-9-3-17-3-23 0-6 1-14 3-22 1-8 4-15 4-16-28 36-69 58-121 56-7 1-11 0-11 0-1 0-1 0-2 0-43-4-81-22-110-49-11-10-20-21-27-31 0 0 0 0 0 0-1-1-1-1-1-1-12-17-22-37-28-57-3-7-3-11-3-11 0 0 0-1 1-3 10-22 23-41 39-58 39-38 92-61 151-57 1 0 1 0 2 0 0 0 0 0 0 0 0 0 0 0 0 0 73 5 125 52 149 115 1-1 10-21 41-23 7 0 13 1 18 2 4 1 9 4 15 8 5 3 10 8 13 14 6 10 8 23 8 30z m-252-74c-44-3-85 19-108 53 18 38 54 66 98 70 41 4 78-17 102-48 1 0 1 0 1-1 0 0 0 0 1-1-19-37-51-70-94-73z m-53 62c-8-1-21-7-21-7l13 14c-3 1-7 1-11-1-7-2-12-11-9-18 3-7 11-11 19-8 8 3 12 11 9 18 0 1 0 1 0 2z"/>
<glyph unicode="&#97;" d="M162 130c1 0 3 1 4 1l1 1 1-1c1 0 2-1 4-1 1 0 3-1 4-1l97-17c1-1 2-1 3-1 2 0 3 1 4 1l2 0c1 0 2-1 3-1 1 0 2 0 4 1l21 3 1 1c-15 16-30 32-40 48l0-9c-6-1-3-2-5-3-1-2-4-2-6-2l-73 7c-2 1-3 1-4 2-2 2-2 3-2 5l0 102 37 65c1 0 3-1 4-1 2 0 4 1 6 2 4 8 8 16 13 24l-2 0c-1 10-9 18-17 18-10 0-18-10-18-22 0-3 1-5 2-8l-24-44 0 129c0 2 0 4 1 5 2 1 3 4 5 4l72 8c2 0 6-2 7-3 1-1-1-5 4-7l0-53c5 7 15 14 23 19l0 34c0 2 2 6 3 7 1 1 3 3 5 3l73-8c1 0 2-2 3-3 1-1 0-4 0-6l0-15c16-2 21-4 31-8l0 36c0 5-2 11-6 14-4 5-10 8-17 8l-97 14c-1 1-3 1-4 1-1 0-2-1-3-1l-1 0-1 1c-1 0-2 1-3 1-2 0-3-1-4-1l-97-14c-1-1-3-1-4-1-1-1-3-1-4-2l-2 0c-1 1-2 1-4 2-1 0-3 0-4 0l-97 14c-1 1-1 1-2 1-5 0-10-3-13-6-4-4-6-9-7-14 0-1-1-2-1-3l0-322c0-1 1-2 1-4 1-5 3-9 7-13 3-3 8-6 12-6 1 0 2 0 3 1l97 17c1 0 3 0 4 1z m-11 299l0-168-32-22c-3 2-6 4-10 4-9 0-17-10-17-22 0-11 8-21 18-21 9 0 17 10 17 21 0 1-1 1-1 2l25 17 0-76c0-2 0-3-1-5-1-1-2-2-4-2l-73-7c-2 0-3 1-4 2-1 1-1 2-1 4l1 0 0 280c0 2 0 3 1 4 1 2 2 4 4 4l-1 3 1 0 72-9c2 0 3-2 4-3 1-1 1-4 1-6z m206-36c-64 0-117-52-117-117 0-24 8-48 21-68 25-35 67-78 96-112 30 34 71 77 96 112 14 20 22 43 22 68 0 65-53 117-118 117z m0-204c-47 0-86 39-86 87 0 48 39 86 86 86 48 0 87-38 87-86 0-48-39-87-87-87z m0 138c-28 0-51-23-51-51 0-28 23-51 51-51 29 0 52 23 52 51 0 28-23 51-52 51z"/>
<glyph unicode="&#98;" d="M261 469c-101 0-182-81-182-182 0-101 81-182 182-182 100 0 182 81 182 182 0 101-82 182-182 182z m113-198c0-6-4-11-10-11l-77 0 0-76c0-6-4-11-10-11l-33 0c-5 0-8 5-8 11l0 76-78 0c-6 0-10 5-10 11l0 32c0 6 4 11 10 11l78 0 0 76c0 6 3 11 8 11l33 0c6 0 10-5 10-11l0-76 77 0c6 0 10-5 10-11z"/>
<glyph unicode="&#99;" d="M115 256l242-242 40 41-201 201 201 201-40 41-242-242 0 0z"/>
<glyph unicode="&#101;" d="M397 256l-242 242-40-41 201-201-201-201 40-41 242 242 0 0z"/>
<glyph unicode="&#104;" d="M326 513l-147-253 147-259 9 5-145 254 145 248z"/>
<glyph unicode="&#105;" d="M186 2l148 253-148 258-8-5 145-253-145-249z"/>
<glyph unicode="&#106;" d="M0 326l253-148 259 148-5 8-254-145-248 145z"/>
<glyph unicode="&#107;" d="M512 186l-253 148-259-148 5-8 254 145 248-145z"/>
<glyph unicode="&#108;" d="M256 130c-70 0-126 56-126 126 0 70 56 126 126 126 70 0 126-56 126-126 0-70-56-126-126-126z m0 215c-49 0-89-40-89-89 0-49 40-89 89-89 49 0 89 40 89 89 0 49-40 89-89 89z m3 73c-11 0-19 9-19 19l0 42c0 11 8 19 19 19 10 0 18-8 18-19l0-42c0-10-8-19-18-19z m-91-23c-7 0-13 4-17 10l-21 36c-5 9-2 21 7 26 9 5 21 2 26-7l21-36c5-9 2-21-7-26-3-2-6-3-9-3z m-68-65c-3 0-6 1-9 3l-36 21c-9 5-12 16-7 25 5 9 16 12 25 7l37-21c9-5 12-17 7-26-4-6-10-9-17-9z m-25-90l-42 0c-11 0-19 8-19 19 0 10 8 18 19 18l42 0c10 0 19-8 19-18 0-11-9-19-19-19z m-14-112c-6 0-12 3-16 9-5 9-2 21 7 26l36 21c9 5 21 2 26-7 5-9 2-20-7-26l-36-21c-3-1-6-2-10-2z m81-83c-3 0-6 1-9 3-9 5-12 16-7 25l21 37c5 9 16 12 26 7 9-6 12-17 6-26l-20-36c-4-6-10-10-17-10z m111-31c-10 0-18 8-18 19l0 42c0 10 8 19 18 19 11 0 19-9 19-19l0-42c0-11-8-19-19-19z m112 29c-6 0-12 3-16 9l-21 36c-5 9-2 21 7 26 9 5 20 2 26-7l21-36c5-9 2-21-7-26-3-2-6-2-10-2z m83 80c-3 0-6 1-9 3l-37 21c-9 5-12 17-7 26 5 9 17 12 26 6l36-21c9-5 12-16 7-25-3-6-10-10-16-10z m31 112l-42 0c-10 0-19 8-19 18 0 11 9 19 19 19l42 0c11 0 19-8 19-19 0-10-8-18-19-18z m-65 90c-6 0-13 4-16 10-5 9-2 20 7 26l36 21c9 5 21 2 26-7 5-9 2-21-7-26l-36-21c-3-2-7-3-10-3z m-65 68c-3 0-7 1-10 2-9 5-12 17-6 26l21 36c5 9 16 12 25 7 9-5 12-16 7-25l-21-37c-3-6-10-9-16-9z"/>
<glyph unicode="&#109;" d="M425 29l-338 0c-21 0-38 17-38 38l0 201c0 21 17 37 38 37l338 0c21 0 38-16 38-37l0-201c0-21-17-38-38-38z m-338 239l0-201 338 0 0 201z m290 4c-11 0-19 9-19 19l0 52c0 56-46 102-102 102-56 0-102-46-102-102l0-52c0-10-8-19-19-19-10 0-19 9-19 19l0 52c0 77 63 140 140 140 77 0 140-63 140-140l0-52c0-10-9-19-19-19z m-121-40c-22 0-39-18-39-40 0-14 8-27 20-34l0-44 38 0 0 44c12 7 20 20 20 34 0 22-17 40-39 40z"/>
<glyph unicode="&#110;" d="M418 248c-20 0-39 8-54 21-15-13-34-21-54-21-20 0-39 8-54 21-15-13-34-21-54-21-20 0-39 8-54 21-15-13-34-21-54-21-45 0-81 36-81 81 0 2 0 5 1 7l50 129c3 7 10 12 18 12l339 0c7 0 14-4 17-11l59-129c1-2 2-5 2-8 0-45-36-81-81-81z m-54 69c7 0 13-3 16-9 8-14 22-22 38-22 23 0 41 17 43 39l-52 114-314 0-44-113c1-23 20-40 43-40 16 0 30 8 38 22 6 11 26 11 32 0 8-14 22-22 38-22 16 0 30 8 38 22 6 11 26 11 32 0 8-14 22-22 38-22 16 0 30 8 38 22 3 6 9 9 16 9z m64-282l-344 0c-11 0-19 9-19 19l0 207c0 10 8 19 19 19 10 0 18-9 18-19l0-188 308 0 0 188c0 10 8 19 18 19 11 0 19-9 19-19l0-207c0-10-8-19-19-19z m-62 19l-220 0c-5 0-9 4-9 9l0 138c0 6 4 10 9 10l220 0c5 0 9-4 9-10l0-138c0-5-4-9-9-9z m-211 19l201 0 0 119-201 0z m283 326l-362 0c-5 0-10 4-10 9 0 5 5 10 10 10l362 0c5 0 9-5 9-10 0-5-4-9-9-9z"/>
<glyph unicode="&#111;" d="M442 90l-372 0c-10 0-19 8-19 19l0 236c0 73 59 132 132 132l146 0c73 0 132-59 132-132l0-236c0-11-9-19-19-19z m-353 37l334 0 0 218c0 52-42 94-94 94l-146 0c-52 0-94-42-94-94z m57-92c-35 0-56 11-56 31l0 25c0 11 8 19 19 19 10 0 18-8 18-19l0-16c5-2 11-2 19-2 9 0 15 0 19 2l0 16c0 11 8 19 19 19 10 0 19-8 19-19l0-25c0-20-21-31-57-31z m220 0c-36 0-57 11-57 31l0 25c0 11 9 19 19 19 11 0 19-8 19-19l0-16c4-2 10-2 19-2 8 0 14 0 19 2l0 16c0 11 8 19 18 19 11 0 19-8 19-19l0-25c0-20-21-31-56-31z m-19 350l-182 0c-10 0-19 8-19 18 0 11 9 19 19 19l182 0c10 0 19-8 19-19 0-10-9-18-19-18z m-180-164c-16 0-29-12-29-28 0-15 13-28 29-28 15 0 28 13 28 28 0 16-13 28-28 28z m178 0c-15 0-28-12-28-28 0-15 13-28 28-28 16 0 29 13 29 28 0 16-13 28-29 28z m40 14l-258 0c-16 0-29 13-29 28l0 82c0 16 13 29 29 29l258 0c16 0 29-13 29-29l0-82c0-15-13-28-29-28z m-258 120c-6 0-10-4-10-10l0-82c0-5 4-9 10-9l258 0c6 0 10 4 10 9l0 82c0 6-4 10-10 10z"/>
<glyph unicode="&#112;" d="M45 11c-3 0-7 1-10 3-5 4-8 10-8 16l0 373c0 8 4 15 12 17l210 80c6 2 13 1 18-2 5-4 8-10 8-16l0-373c0-8-5-15-12-17l-211-80c-2-1-4-1-7-1z m19 379l0-333 173 65 0 333z m25-78c-4 0-8 2-9 6-2 5 1 10 6 12l125 48c5 2 11-1 12-6 2-5 0-10-5-12l-126-47c-1-1-2-1-3-1z m0-121c-4 0-8 2-9 6-2 5 1 10 6 12l125 48c5 1 11-1 12-6 2-5 0-10-5-12l-126-47c-1-1-2-1-3-1z m0-61c-4 0-8 3-9 6-2 5 1 11 6 13l125 47c5 2 11-1 12-5 2-5 0-11-5-13l-126-47c-1 0-2-1-3-1z m0 122c-4 0-8 2-9 6-2 4 1 10 6 12l125 47c5 2 11 0 12-5 2-5 0-11-5-12l-126-48c-1 0-2 0-3 0z m300-203c-5 0-9 5-9 10l0 109c0 3 1 6 4 8 2 1 6 2 9 1l77-29c5-2 7-8 5-13-1-4-7-7-12-5l-64 24 0-95c0-5-5-10-10-10z m0-9c-2 0-4 0-6 1l-134 51c-7 2-12 9-12 17l0 373c0 6 3 12 8 16 5 3 12 4 18 2l210-80c8-2 12-9 12-17l0-264c0-5-1-10-5-13l-77-80c-4-4-9-6-14-6z m-114 82l109-41 64 65 0 244-173 65z m152 188c-1 0-2 1-3 1l-126 48c-5 1-7 7-5 12 2 5 7 7 12 5l126-47c5-2 7-8 5-12-1-4-5-7-9-7z m0-121c-1 0-2 1-3 1l-126 47c-5 2-7 8-5 13 2 4 7 7 12 5l126-47c5-2 7-8 5-13-1-3-5-6-9-6z m0 61c-1 0-2 0-3 0l-126 48c-5 2-7 7-5 12 2 5 7 7 12 6l126-48c5-2 7-7 5-12-1-4-5-6-9-6z"/>
<glyph unicode="&#113;" d="M234 318c-17 0-30-14-30-31 0-16 13-30 30-30 17 0 31 14 31 30 0 17-14 31-31 31z m80 0c-17 0-30-14-30-31 0-16 13-30 30-30 17 0 31 14 31 30 0 17-14 31-31 31z m80 0c-17 0-30-14-30-31 0-16 13-30 30-30 17 0 31 14 31 30 0 17-14 31-31 31z m-160-80c-17 0-30-14-30-31 0-16 13-30 30-30 17 0 31 14 31 30 0 17-14 31-31 31z m80 0c-17 0-30-14-30-31 0-16 13-30 30-30 17 0 31 14 31 30 0 17-14 31-31 31z m80 0c-17 0-30-14-30-31 0-16 13-30 30-30 17 0 31 14 31 30 0 17-14 31-31 31z m-160-80c-17 0-30-14-30-30 0-17 13-31 30-31 17 0 31 14 31 31 0 16-14 30-31 30z m80 0c-17 0-30-14-30-30 0-17 13-31 30-31 17 0 31 14 31 31 0 16-14 30-31 30z m80 0c-17 0-30-14-30-30 0-17 13-31 30-31 17 0 31 14 31 31 0 16-14 30-31 30z m12-121l-200 0 0 37 200 0c20 0 37 17 37 38l0 288c0 21-17 38-37 38l-200 0 0 38 200 0c41 0 75-34 75-76l0-288c0-42-34-75-75-75z m-260-2c-14 0-29 2-43 6-6 2-13 5-20 8l-6 3-3 6c-28 56-43 124-43 197l0 2c0 73 15 142 43 197l3 6 6 3c7 3 14 6 21 8 22 6 46 7 69 3l16-3 0-146-42 0 0-138 42 0 0-146-16-3c-9-2-18-3-27-3z m-42 46c4-1 7-2 10-3 12-4 24-5 37-5l0 76-4 0c-21 0-38 17-38 38l0 138c0 21 17 38 38 38l4 0 0 76c-13 0-25-1-37-5-3-1-6-2-10-3-23-49-35-108-35-173l0-1 0-2c0-65 12-125 35-174z m320 261l-217 0 0 71 217 0z m-198 18l179 0 0 34-179 0z"/>
<glyph unicode="&#115;" d="M439 233c-3 0-7 1-10 3-25 12-59 28-88 45-9 5-24 23-20 39l8 35c-1 1-4 3-10 4-20 3-41 5-63 5-22 0-43-2-63-5-5-1-8-3-10-4l8-35c4-16-12-34-19-39-35-22-58-34-91-46-2-1-5-2-8-2-13 0-32 10-38 24-13 28-19 58-19 88 0 8 1 17 2 26l1 6 4 5c56 58 140 91 232 91 94 0 178-33 234-91l4-5 1-6c1-10 2-18 2-26 0-31-6-60-19-88-6-13-25-24-38-24z m-370 41c0-1 2-2 3-2 28 10 48 21 80 41 0 0 1 2 2 3l-8 32c-2 9 0 19 6 27 7 11 20 19 35 21 22 4 45 5 69 6 24-1 47-2 69-6 15-2 28-10 35-21 6-8 8-18 6-28l-8-31c1-1 2-3 3-3 25-15 55-30 79-41 2 1 3 1 4 2 9 21 14 46 14 71 0 5 0 10-1 15-48 48-122 76-200 76l-2 0c-78 0-152-28-200-76-1-5-1-10-1-15 0-25 5-49 15-71z m110-29c-15 0-28-12-28-28 0-16 13-29 28-29 16 0 29 13 29 29 0 16-13 28-29 28z m75 0c-16 0-28-12-28-28 0-16 12-29 28-29 16 0 29 13 29 29 0 16-13 28-29 28z m75 0c-16 0-29-12-29-28 0-16 13-29 29-29 16 0 29 13 29 29 0 16-13 28-29 28z m-150-74c-15 0-28-13-28-29 0-16 13-29 28-29 16 0 29 13 29 29 0 16-13 29-29 29z m75 0c-16 0-28-13-28-29 0-16 12-29 28-29 16 0 29 13 29 29 0 16-13 29-29 29z m75 0c-16 0-29-13-29-29 0-16 13-29 29-29 16 0 29 13 29 29 0 16-13 29-29 29z m-150-75c-15 0-28-13-28-29 0-16 13-28 28-28 16 0 29 12 29 28 0 16-13 29-29 29z m75 0c-16 0-28-13-28-29 0-16 12-28 28-28 16 0 29 12 29 28 0 16-13 29-29 29z m75 0c-16 0-29-13-29-29 0-16 13-28 29-28 16 0 29 12 29 28 0 16-13 29-29 29z"/>
<glyph unicode="&#118;" d="M256 36c-4 0-8 2-12 5-18 15-174 151-174 249 0 102 84 186 186 186 102 0 186-84 186-186 0-98-156-234-174-249-4-3-8-5-12-5z m0 403c-82 0-149-67-149-149 0-64 98-166 149-211 51 45 149 147 149 211 0 82-67 149-149 149z m0-240c-50 0-91 41-91 91 0 50 41 90 91 90 50 0 91-40 91-90 0-50-41-91-91-91z m0 145c-30 0-54-24-54-54 0-30 24-54 54-54 30 0 54 24 54 54 0 30-24 54-54 54z"/>
<glyph unicode="&#119;" d="M227 88c-112 0-202 90-202 201 0 111 90 202 202 202 111 0 201-91 201-202 0-111-90-201-201-201z m0 362c-89 0-161-72-162-161 1-89 73-161 162-161 88 0 161 72 161 161 0 89-73 161-161 161z m-114-161l-20 0c0 74 60 134 134 134l0-20c-63 0-114-51-114-114z m354-268c-5 0-11 2-15 6l-112 113c-8 7-8 20 0 28 8 8 21 8 28 0l113-112c8-8 8-21 0-29-4-4-9-6-14-6z"/>
<glyph unicode="&#120;" d="M204 24c-32 0-63 13-86 36l-64 64c-23 23-36 54-36 86 0 33 13 63 36 86 23 23 54 36 86 36 27 0 52-9 73-25l164 164c22 22 62 22 84 0 18-18 22-45 12-67l7-6c9-9 14-21 14-34 0-12-5-24-14-33-8-8-18-13-29-14-2-10-6-20-14-28-19-19-52-19-71 0l-1 1-67-67c39-48 37-118-8-163-23-23-53-36-86-36z m-64 270c-22 0-43-9-59-25-16-16-24-37-24-59 0-22 8-43 24-59l64-64c16-16 37-24 59-24 22 0 43 8 59 24 33 33 33 86 0 118l-5 5c-7 8-7 20 0 27l93 93c7 8 20 8 27 0l15-14c4-5 12-5 17 0 4 4 4 12 0 17l-15 14c-3 4-5 9-5 14 0 5 2 10 5 13 8 8 20 8 27 1l17-17c3-3 5-3 7-3 1 0 4 0 7 3 2 2 3 5 3 6 0 2-1 5-3 7l-17 17c-7 7-8 19-1 26 7 9 7 22-1 30-8 8-22 8-30 0l-176-177c-8-7-20-7-27 0l-2 2c-16 16-37 25-59 25z m64-193c-12 0-23 4-32 13l-64 64c-18 18-18 46 0 64 17 17 47 17 64 0l64-64c18-18 18-46 0-64-8-9-20-13-32-13z m-64 116c-1 0-3 0-5-2-3-3-3-7 0-10l64-64c4-4 6-4 10 0 3 3 3 7 0 10l-64 64c-2 2-4 2-5 2z"/>
<glyph unicode="&#121;" d="M256 29c-56 0-113 5-168 14-22 4-40 24-42 46-2 16-3 31-5 47-2 22 11 46 31 57 36 17 74 29 114 35l-1 5c-11 9-18 20-19 31 0 4 0 8-1 11-9 4-15 13-16 23l-5 44c-1 7 1 14 6 20 1 2 3 3 5 5l-2 13c-1 15-5 50 23 74 18 18 47 29 80 29 33 0 62-11 81-29 27-24 23-59 22-74l0-4c-1-3-1-6-2-9 2-2 4-3 5-5 5-5 7-13 6-20l-5-44c-1-10-7-19-16-23l-2-11c0-11-7-22-18-31l-1-5c40-6 78-18 114-35 20-10 33-35 31-57l-5-47c-2-22-20-42-41-46-56-9-113-14-169-14z m-71 285c1 0 2-1 3-1 7-2 12-8 13-16 1-10 2-19 3-29 1-1 3-5 9-9 5-3 8-8 9-13l4-31c1-5-1-10-4-15-3-4-7-6-13-7-42-5-83-17-120-34-6-3-11-14-10-19 1-16 3-31 5-47 0-6 6-12 10-13 106-17 217-17 324 0 4 1 10 7 10 13l5 47c1 5-4 16-10 19-37 17-78 29-120 34-6 1-10 3-13 7-3 5-5 10-4 15l4 31c1 5 4 10 9 13 6 4 8 8 9 9l3 29c1 8 6 14 13 16 1 0 2 1 3 1l2 21c-1 0-2 1-3 2-6 4-9 11-8 18l0 2c1 7 2 15 3 23l0 4c1 15 2 31-10 42-12 12-33 19-55 19-22 0-43-7-54-19-13-11-12-28-11-42l3-30c1-7-2-14-8-17-1-1-2-2-3-2z"/>
<glyph unicode="&#122;" d="M316 64c-5 0-8 4-8 8l0 84c0 4 3 8 8 8l83 0c5 0 8-4 8-8 0-5-3-8-8-8l-75 0 0-76c0-4-4-8-8-8z m0-8l-144 0c-9 0-16 7-16 16l0 286c0 9 7 16 16 16l227 0c9 0 16-7 16-16l0-202c0-4-1-8-4-11l-84-84c-3-3-7-5-11-5z m-128 32l121 0 74 74 0 180-195 0z m113 209l-82 0c-4 0-8 4-8 8 0 5 4 8 8 8l82 0c4 0 8-3 8-8 0-4-4-8-8-8z m54-42l-136 0c-4 0-8 4-8 8 0 5 4 8 8 8l136 0c4 0 8-3 8-8 0-4-4-8-8-8z m0-42l-136 0c-4 0-8 4-8 8 0 5 4 8 8 8l136 0c4 0 8-3 8-8 0-4-4-8-8-8z m-79-42l-57 0c-4 0-8 4-8 8 0 4 4 8 8 8l57 0c4 0 8-4 8-8 0-4-4-8-8-8z m-108-57l-55 0c-9 0-16 7-16 16l0 296c0 9 7 16 16 16l229 0c9 0 16-7 16-16l0-62c0-9-7-16-16-16-9 0-16 7-16 16l0 46-197 0 0-264 39 0c9 0 16-7 16-16 0-9-7-16-16-16z m106 278l-93 0c-18 0-32 15-32 32 0 17 14 32 32 32l93 0c18 0 32-15 32-32 0-17-14-32-32-32z"/>
<glyph unicode="&#67;" d="M88 27c-16 0-31 6-43 18-24 23-24 62 0 85l337 337c23 24 62 24 85 0 24-23 24-62 0-85l-337-337c-12-12-27-18-42-18z m336 0c-15 0-30 6-42 18l-337 337c-24 23-24 62 0 85 23 24 62 24 85 0l337-337c24-23 24-62 0-85-12-12-27-18-43-18z"/>
<glyph unicode="&#70;" d="M11 242l490 0 0 28-490 0m231 231l0-490 28 0 0 490"/>
<glyph unicode="&#71;" d="M73 419l346-346 20 20-346 346m326 0l-346-346 20-20 346 346"/>
<glyph unicode="&#72;" d="M243 346l-82 0c-5 0-8 4-8 8 0 5 3 8 8 8l82 0c4 0 8-3 8-8 0-4-4-8-8-8z m53-42l-135 0c-5 0-8 4-8 8 0 5 3 8 8 8l135 0c5 0 8-3 8-8 0-4-3-8-8-8z m0-42l-135 0c-5 0-8 4-8 8 0 5 3 8 8 8l135 0c5 0 8-3 8-8 0-4-3-8-8-8z m-78-42l-57 0c-5 0-8 4-8 8 0 4 3 8 8 8l57 0c4 0 8-4 8-8 0-4-4-8-8-8z m65 185l-108 0c-19 0-34 15-34 34 0 19 15 34 34 34l108 0c19 0 34-15 34-34 0-19-15-34-34-34z m-108 36c-1 0-2-1-2-2 0-1 1-2 2-2l108 0c1 0 2 1 2 2 0 1-1 2-2 2z m157-402c-55 0-100 45-100 99 0 55 45 100 100 100 54 0 99-45 99-100 0-54-45-99-99-99z m0 183c-46 0-84-38-84-84 0-45 38-83 84-83 46 0 83 38 83 83 0 46-37 84-83 84z m-83-137l-152 0c-9 0-16 7-16 16l0 340c0 9 7 16 16 16l264 0c9 0 16-7 16-16l0-216-32 0 0 200-232 0 0-308 136 0z m67-4c-5 0-9 2-12 5l-26 28c-6 6-6 16 0 22 7 6 17 6 23 0l14-15 46 57c6 7 16 8 23 2 6-6 7-16 2-23l-58-70c-3-4-7-6-12-6 0 0 0 0 0 0z"/>
<glyph unicode="&#73;" d="M460 444l-408 0c-11 0-20 9-20 20 0 11 9 20 20 20l408 0c11 0 20-9 20-20 0-11-9-20-20-20z m-45-104l-318 0c-11 0-20 9-20 20 0 11 9 20 20 20l318 0c11 0 20-9 20-20 0-11-9-20-20-20z m45-104l-408 0c-11 0-20 9-20 20 0 11 9 20 20 20l408 0c11 0 20-9 20-20 0-11-9-20-20-20z m-30-104l-348 0c-11 0-20 9-20 20 0 11 9 20 20 20l348 0c11 0 20-9 20-20 0-11-9-20-20-20z m-89-104l-170 0c-11 0-20 9-20 20 0 11 9 20 20 20l170 0c11 0 20-9 20-20 0-11-9-20-20-20z"/>
<glyph unicode="&#74;" d="M460 444l-408 0c-11 0-20 9-20 20 0 11 9 20 20 20l408 0c11 0 20-9 20-20 0-11-9-20-20-20z m-90-104l-318 0c-11 0-20 9-20 20 0 11 9 20 20 20l318 0c11 0 20-9 20-20 0-11-9-20-20-20z m90-104l-408 0c-11 0-20 9-20 20 0 11 9 20 20 20l408 0c11 0 20-9 20-20 0-11-9-20-20-20z m-61-104l-347 0c-11 0-20 9-20 20 0 11 9 20 20 20l347 0c11 0 20-9 20-20 0-11-9-20-20-20z m-178-104l-169 0c-11 0-20 9-20 20 0 11 9 20 20 20l169 0c11 0 20-9 20-20 0-11-9-20-20-20z"/>
<glyph unicode="&#76;" d="M93 230c-5 0-10 2-14 6l-53 54c-8 7-8 20 0 27l53 54c8 7 21 7 28 0 8-8 8-21 0-28l-39-40 39-39c8-7 8-20 0-28-4-4-9-6-14-6z m62 54l-96 0c-11 0-20 9-20 19 0 11 9 20 20 20l96 0c11 0 20-9 20-20 0-10-9-19-20-19z m317 142l-432 0c-5 0-10 4-10 10 0 5 5 10 10 10l432 0c5 0 10-5 10-10 0-6-5-10-10-10z m-285 11c-5 0-10 4-10 10l0 32c0 6 5 10 10 10 6 0 10-4 10-10l0-32c0-6-4-10-10-10z m285-371l-432 0c-5 0-10 5-10 10 0 6 5 10 10 10l432 0c5 0 10-4 10-10 0-5-5-10-10-10z m-285-43c-5 0-10 4-10 10l0 32c0 6 5 10 10 10 6 0 10-4 10-10l0-32c0-6-4-10-10-10z m285 303l-264 0c-11 0-20 9-20 20 0 11 9 20 20 20l264 0c11 0 20-9 20-20 0-11-9-20-20-20z m0-90l-264 0c-11 0-20 9-20 20 0 11 9 19 20 19l264 0c11 0 20-8 20-19 0-11-9-20-20-20z m0-90l-264 0c-11 0-20 9-20 20 0 10 9 19 20 19l264 0c11 0 20-9 20-19 0-11-9-20-20-20z"/>
<glyph unicode="&#77;" d="M102 230c-5 0-10 2-14 6-8 8-8 21 0 28l39 39-39 40c-8 7-8 20 0 28 8 7 20 7 28 0l53-54c8-7 8-20 0-27l-53-54c-4-4-9-6-14-6z m-62 54c-11 0-20 9-20 19 0 11 9 20 20 20l96 0c11 0 20-9 20-20 0-10-9-19-20-19z m432 142l-432 0c-5 0-10 4-10 10 0 5 5 10 10 10l432 0c5 0 10-5 10-10 0-6-5-10-10-10z m-285 11c-5 0-10 4-10 10l0 32c0 6 5 10 10 10 6 0 10-4 10-10l0-32c0-6-4-10-10-10z m285-371l-432 0c-5 0-10 5-10 10 0 6 5 10 10 10l432 0c5 0 10-4 10-10 0-5-5-10-10-10z m-285-43c-5 0-10 4-10 10l0 32c0 6 5 10 10 10 6 0 10-4 10-10l0-32c0-6-4-10-10-10z m285 303l-264 0c-11 0-20 9-20 20 0 11 9 20 20 20l264 0c11 0 20-9 20-20 0-11-9-20-20-20z m0-90l-264 0c-11 0-20 9-20 20 0 11 9 19 20 19l264 0c11 0 20-8 20-19 0-11-9-20-20-20z m0-90l-264 0c-11 0-20 9-20 20 0 10 9 19 20 19l264 0c11 0 20-9 20-19 0-11-9-20-20-20z"/>
<glyph unicode="&#78;" d="M170 443l-86 0c-11 0-20 9-20 20 0 10 9 19 20 19l86 0c11 0 20-9 20-19 0-11-9-20-20-20z m258 0l-86 0c-11 0-20 9-20 20 0 10 9 19 20 19l86 0c11 0 20-9 20-19 0-11-9-20-20-20z m0-413l-344 0c-6 0-10 4-10 10 0 5 4 9 10 9l344 0c6 0 10-4 10-9 0-6-4-10-10-10z m-172 52c-82 0-148 66-148 148l0 223c0 11 9 20 20 20 11 0 19-9 19-20l0-223c0-60 49-109 109-109 60 0 109 49 109 109l0 223c0 11 9 20 20 20 11 0 20-9 20-20l0-223c0-82-67-148-149-148z"/>
<glyph unicode="&#79;" d="M242 217l-4 52c0 10-1 17-1 22 0 6 2 11 5 14 3 3 8 5 13 5 6 0 10-2 12-6 2-5 3-11 3-19 0-5 0-10 0-15l-5-54c0-6-2-11-3-14-2-4-5-6-9-6-3 0-6 2-8 5-1 4-2 9-3 16z m12-72c-4 0-8 1-12 4-3 3-5 7-5 12 0 5 2 8 5 12 3 3 7 4 12 4 4 0 8-1 12-4 3-4 4-7 4-12 0-5-1-9-4-12-4-3-8-4-12-4z m198-75l-392 0c-6 0-11 3-14 8-3 5-3 11 0 16l196 340c6 10 22 10 28 0l196-340c3-5 3-11 0-16-3-5-8-8-14-8z m-365 32l338 0-169 292z"/>
<glyph unicode="&#80;" d="M235 84c-5 0-8 3-8 8l0 96c0 4 3 8 8 8l96 0c4 0 7-4 7-8 0-5-3-8-7-8l-88 0 0-88c0-5-4-8-8-8z m0-8l-166 0c-8 0-16 7-16 16l0 328c0 9 8 16 16 16l262 0c8 0 15-7 15-16l0-65c0-9-7-16-15-16-9 0-16 7-16 16l0 49-230 0 0-296 143 0 87 86 0 69c0 9 7 16 16 16 8 0 15-7 15-16l0-75c0-4-1-9-4-11l-96-96c-3-3-7-5-11-5z m141 151c-4 0-9 2-12 5-6 6-6 16 0 22l56 56-56 56c-6 6-6 16 0 22 7 7 17 7 23 0l67-67c6-6 6-16 0-22l-67-67c-3-3-7-5-11-5z m-141 67c-9 0-16 7-16 16 0 9 7 16 16 16l189 0c9 0 16-7 16-16 0-9-7-16-16-16z"/>
<glyph unicode="&#81;" d="M256 55c-90 0-169 55-196 138-1 3-1 7 0 10 27 83 106 138 196 138 90 0 169-55 196-138 1-3 1-7 0-10-27-83-106-138-196-138z m-161 143c23-65 88-109 161-109 73 0 138 44 161 109-23 65-88 109-161 109-73 0-138-44-161-109z m161-93c-51 0-93 42-93 93 0 9 8 17 18 17 9 0 17-8 17-17 0-32 26-58 58-58 32 0 58 26 58 58 0 32-26 58-58 58-9 0-17 8-17 17 0 10 8 17 17 17 51 0 92-41 92-92 0-51-41-93-92-93z m0 289c-8 0-15 7-15 15l0 33c0 8 7 15 15 15 8 0 15-7 15-15l0-33c0-8-7-15-15-15z m70-13c-8 3-11 12-9 20l12 30c3 8 12 12 19 9 8-3 12-11 9-19l-12-31c-3-8-11-11-19-9z m61-37c-6 6-7 15-1 21l22 25c5 6 14 7 21 1 6-5 6-15 1-21l-22-24c-6-6-15-7-21-2z m43-56c-3 7 0 16 7 20l29 15c7 4 16 1 20-6 4-7 1-16-6-20l-30-15c-7-4-16-1-20 6z m-244 93c8 3 11 12 9 20l-12 30c-3 8-12 12-19 9-8-3-12-11-9-19l12-31c3-8 11-11 19-9z m-61-37c6 6 7 15 1 21l-22 25c-5 6-14 7-21 1-6-5-6-15-1-21l22-24c6-6 15-7 21-2z m-43-56c3 7 0 16-7 20l-29 15c-7 4-16 1-20-6-4-7-1-16 6-20l30-15c7-4 16-1 20 6z"/>
<glyph unicode="&#82;" d="M316 132l-120 0c-4 0-9 2-12 5-3 3-4 8-4 12 1 11-1 33-8 42-50 64-50 125-50 125 0 74 60 134 134 134 74 0 134-60 134-134 0 0 0-61-50-125-7-10-8-32-8-42 1-4-1-8-4-12-3-3-7-5-12-5z m-104 32l88 0c1 14 4 33 14 46 42 54 44 106 44 106 0 57-46 103-102 103-56 0-102-46-102-103 0 0 2-52 44-106 10-13 13-32 14-46z m107-67l-126 0c-8 0-16 7-16 16 0 8 8 16 16 16l126 0c8 0 16-8 16-16 0-9-8-16-16-16z m-15-36l-95 0c-9 0-16 8-16 16 0 9 7 16 16 16l95 0c8 0 15-7 15-16 0-8-7-16-15-16z m-77 89l-20 167 16 2 20-167z m58 0l-16 2 20 167 16-2z m-1 127c-4 0-7 3-9 6-2-3-5-6-10-6-5 0-8 3-10 6-2-3-5-6-10-6-5 0-8 3-10 6-2-3-5-6-9-6-8 0-11 7-13 11 0 0-1 2-1 2 1-1 2-2 4-2l0 16c5 0 8-2 10-5 1 3 4 5 9 5 5 0 8-2 10-5 2 3 5 5 10 5 5 0 8-2 10-5 2 3 5 5 10 5 4 0 8-2 9-5 2 3 5 5 10 5l0-16c2 0 3 1 4 2 0-1-1-2-1-2-2-4-5-11-13-11z"/>
<glyph unicode="&#83;" d="M460 444l-408 0c-11 0-20 9-20 20 0 11 9 20 20 20l408 0c11 0 20-9 20-20 0-11-9-20-20-20z m0-104l-408 0c-11 0-20 9-20 20 0 11 9 20 20 20l408 0c11 0 20-9 20-20 0-11-9-20-20-20z m0-104l-408 0c-11 0-20 9-20 20 0 11 9 20 20 20l408 0c11 0 20-9 20-20 0-11-9-20-20-20z m0-104l-408 0c-11 0-20 9-20 20 0 11 9 20 20 20l408 0c11 0 20-9 20-20 0-11-9-20-20-20z m0-104l-408 0c-11 0-20 9-20 20 0 11 9 20 20 20l408 0c11 0 20-9 20-20 0-11-9-20-20-20z"/>
<glyph unicode="&#84;" d="M461 444l-409 0c-11 0-20 9-20 20 0 11 9 20 20 20l409 0c10 0 19-9 19-20 0-11-9-20-19-20z m0-104l-319 0c-11 0-20 9-20 20 0 11 9 20 20 20l319 0c10 0 19-9 19-20 0-11-9-20-19-20z m0-104l-409 0c-11 0-20 9-20 20 0 11 9 20 20 20l409 0c10 0 19-9 19-20 0-11-9-20-19-20z m0-104l-348 0c-11 0-20 9-20 20 0 11 9 20 20 20l348 0c10 0 19-9 19-20 0-11-9-20-19-20z m0-104l-170 0c-11 0-20 9-20 20 0 11 9 20 20 20l170 0c10 0 19-9 19-20 0-11-9-20-19-20z"/>
<glyph unicode="&#85;" d="M462 415l-268 0c-11 0-19 9-19 20 0 11 8 19 19 19l268 0c10 0 19-8 19-19 0-11-9-20-19-20z m0-178l-268 0c-11 0-19 9-19 20 0 10 8 19 19 19l268 0c10 0 19-9 19-19 0-11-9-20-19-20z m0-178l-268 0c-11 0-19 8-19 19 0 11 8 20 19 20l268 0c10 0 19-9 19-20 0-11-9-19-19-19z m-397 330l0 65c-12-9-20-14-25-14-2 0-3 1-5 3-1 1-2 3-2 5 0 3 1 5 2 6 2 1 4 2 8 4 6 3 11 6 14 9 3 3 6 6 9 10 3 4 5 6 5 7 1 1 3 1 5 1 2 0 4-1 6-3 2-2 2-5 2-8l0-82c0-9-3-14-9-14-3 0-6 1-7 3-2 2-3 5-3 8z m-9-168l38 0c3 0 6-1 8-2 2-2 3-4 3-6 0-3-1-5-2-6-2-2-4-3-7-3l-53 0c-4 0-6 1-8 3-2 2-3 5-3 7 0 2 0 4 2 7 1 3 2 5 4 7 6 6 12 12 17 17 5 4 9 7 11 9 4 3 7 5 10 8 2 3 4 6 6 9 1 3 2 5 2 8 0 3-1 6-3 8-1 3-3 5-6 6-2 1-5 2-8 2-6 0-11-3-14-8-1-1-2-3-3-6-1-3-2-6-4-7-1-2-3-3-6-3-2 0-4 1-6 2-1 2-2 4-2 7 0 3 1 7 2 10 2 4 4 7 7 10 3 3 6 5 11 7 4 2 10 3 16 3 7 0 13-2 18-4 4-1 7-4 9-6 3-3 5-6 6-9 1-4 2-8 2-11 0-6-1-12-4-16-3-5-6-9-9-12-3-3-8-7-16-13-7-5-12-10-14-13-1-2-3-3-4-5z m8-129c4 0 8 1 11 4 3 2 5 6 5 11 0 4-2 7-4 9-3 3-6 4-10 4-3 0-6 0-7-1-2-1-4-2-5-3-1-1-2-3-3-5-1-2-2-4-3-6 0-1-1-2-2-3-2 0-3 0-5 0-1 0-3 0-5 2-1 1-2 4-2 6 0 3 1 5 2 8 2 3 4 5 7 8 2 2 6 4 10 6 5 1 9 2 15 2 4 0 9-1 12-2 4-1 7-3 10-5 3-3 5-6 7-9 1-3 2-6 2-10 0-5-1-9-3-12-2-3-5-7-9-10 4-2 7-4 9-7 3-2 5-5 6-8 1-3 2-7 2-10 0-5-1-9-3-13-1-4-4-8-7-11-4-3-8-6-12-7-5-2-10-3-16-3-6 0-11 1-15 3-5 2-8 5-11 8-3 3-5 6-7 9-2 4-2 6-2 8 0 3 1 5 2 7 2 2 4 3 7 3 1 0 3-1 4-2 1 0 2-1 2-2 3-7 5-12 8-15 3-3 7-5 12-5 3 0 6 1 9 2 3 2 5 4 7 7 1 3 2 6 2 10 0 5-1 10-4 13-3 3-8 5-13 5-1 0-2-1-4-1-2 0-4 0-4 0-3 0-5 1-6 2-2 1-2 3-2 5 0 3 0 4 2 6 2 1 4 2 8 2l3 0z"/>
<glyph unicode="&#86;" d="M347 277c30 22 49 55 49 93 0 66-59 119-130 119l-170 0c-10 0-19-9-19-19 0-11 9-20 19-20l4 0 0-389-4 0c-10 0-19-8-19-19 0-11 9-19 19-19l209 0c72 0 130 58 130 130 0 57-36 106-88 124z m-63 93c0-45-28-80-62-80l-11 0 0 160 11 0c34 0 62-36 62-80z m-73-309l0 183 40 0c34 0 62-42 62-91 0-50-28-92-62-92z"/>
<glyph unicode="&#87;" d="M156 29c-3 0-6 1-8 2-10 5-14 17-10 27l196 415c4 10 16 14 26 10 10-5 14-17 10-27l-196-415c-3-7-10-12-18-12z m258 424l-120 0c-11 0-20 9-20 19 0 11 9 20 20 20l120 0c11 0 19-9 19-20 0-10-8-19-19-19z m-196-433l-120 0c-11 0-19 9-19 20 0 10 8 19 19 19l120 0c11 0 20-9 20-19 0-11-9-20-20-20z"/>
<glyph unicode="&#88;" d="M373 63l-15 0-135 411c-2 9-10 14-18 14-9 0-16-6-19-14l-135-411-15 0c-10 0-19-9-19-19 0-11 9-20 19-20l67 0c11 0 20 9 20 20 0 10-9 19-20 19l-10 0 30 92 163 0 30-92-9 0c-11 0-20-9-20-19 0-11 9-20 20-20l66 0c11 0 20 9 20 20 0 10-9 19-20 19z m-237 132l69 210 68-210z m282 283l-14 0c-31 0-59-19-71-50-5-10 0-21 11-25 10-5 21 0 25 11 6 15 20 24 35 24l14 0c21 0 38-18 38-41l0-6c-10-2-22-6-37-9-23-5-39-9-47-11-12-3-23-9-32-17-9-8-19-21-19-43 0-18 7-34 20-46 12-12 29-19 49-19 19 0 37 5 53 13 5 3 9 5 13 8 0-10 9-19 20-19 11 0 20 9 20 20l0 129c0 45-35 81-78 81z m28-164c-5-8-12-15-22-20-10-5-21-8-34-8-13 0-19 4-22 7-5 5-8 11-8 18 0 7 3 11 5 13 6 4 11 7 17 9 8 2 23 6 45 10 10 3 19 5 26 7-1-22-5-32-7-36z"/>
<glyph unicode="&#114;" d="M473 432l-61 0 0 15c0 11-9 21-21 21-12 0-21-10-21-21l0-15-228 0 0 15c0 11-9 21-21 21-12 0-21-10-21-21l0-15-61 0c-12 0-22-9-22-21l0-346c0-11 10-21 22-21l434 0c12 0 22 10 22 21l0 346c0 12-10 21-22 21z m-373-42l0-14c0-12 9-21 21-21 12 0 21 9 21 21l0 14 228 0 0-14c0-12 9-21 21-21 12 0 21 9 21 21l0 14 40 0 0-83-392 0 0 83z m-40-303l0 199 392 0 0-199z m191 50c-3 3-7 4-12 4l-53 0c1 2 3 4 5 6 3 5 10 11 21 20 10 8 17 14 22 18 4 4 8 9 12 16 5 7 7 15 7 23 0 6-1 11-3 16-2 5-5 9-9 13-3 4-8 7-12 9-8 3-17 5-27 5-9 0-16-1-22-4-7-3-12-6-16-10-5-4-8-9-10-14-2-5-3-10-3-15 0-3 1-6 3-9 3-2 6-3 9-3 4 0 7 1 9 4 2 2 4 6 5 10 2 5 3 7 4 8 5 8 12 12 20 12 5 0 9-1 12-3 4-2 7-4 9-8 2-3 3-7 3-11 0-4-1-8-3-13-2-4-5-8-9-12-3-4-8-8-14-12-3-2-8-6-15-13-7-7-16-15-25-24-2-2-4-5-6-10-1-4-2-7-2-9 0-4 1-7 4-10 3-3 7-4 12-4l75 0c4 0 8 1 10 3 2 2 3 5 3 9 0 3-1 6-4 8z m117 32c-3 2-7 2-12 2l-5 0 0 79c0 12-5 18-15 18-3 0-6-1-8-3-3-2-6-6-9-11l-54-72c-2-2-3-4-4-5-1-1-2-3-3-4-1-2-2-3-2-4-1-2-1-3-1-4 0-5 2-9 5-12 3-3 8-5 15-5l51 0 0-18c0-6 1-9 3-12 3-3 6-4 9-4 4 0 7 1 10 4 2 2 3 6 3 12l0 18 6 0c6 0 9 1 12 3 3 2 4 5 4 9 0 5-2 8-5 9z m-42 2l-44 0 44 59z"/>
<glyph unicode="&#117;" d="M464 324l-47 40 0 64c0 5-4 9-9 9l-65 0-75 55c-7 5-15 5-22 1l-82-56-60 0c-5 0-9-4-9-9l0-64-48-40c-4-4-6-9-6-15l0-249c0-24 20-44 44-44l342 0c24 0 44 20 44 44l0 249c0 6-2 11-7 15z m-386-59l105-93-105-93z m354-209c-2-2-3-2-5-2l-342 0c-2 0-3 0-5 2l121 107c1 1 2 2 3 3 0 0 1 0 1 1l51 45z m-103 116l105 93 0-186z m105 129l0-11-17-14 0 38z m-178 153l23-17-48 0z m142-36l0-77c0-1 0-3 0-4l0-78-83-74-53 47c-3 3-9 3-12 0l-53-47-83 74 0 79c0 1 0 2 0 4l0 76z m-303-103l0-39-17 14 0 11z m55 76l201 0 0-19-201 0z m0-35l201 0 0-18-201 0z m0-34l201 0 0-19-201 0z m0-34l201 0 0-19-201 0z m0-35l201 0 0-18-201 0z"/>
<glyph unicode="&#75;" d="M427 412l-342 0c-24 0-44-20-44-44l0-224c0-24 20-44 44-44l342 0c24 0 44 20 44 44l0 224c0 24-20 44-44 44z m0-275l-342 0c-2 0-3 1-5 3l117 103 53-47c2-1 4-2 6-2 2 0 5 1 6 2l53 47 117-103c-1-2-3-3-5-3z m-171 79l-176 156c2 2 3 3 5 3l342 0c2 0 4-1 5-3z m-178 133l105-93-105-93z m251-93l105 93 0-186z"/>
<glyph unicode="&#102;" d="M384 493c0 0-218 0-253 0-35 0-45-27-45-43 0-17 0-401 0-401 0-19 10-26 15-28 6-2 22-4 31 6 0 0 119 139 121 141 3 3 3 3 6 3 7 0 53 0 78 0 32 0 37 23 41 37 2 11 34 173 45 224 8 40-2 61-39 61z m-6-285c2 11 34 173 45 224m-54-8l-11-55c-1-6-9-12-16-12-7 0-98 0-98 0-11 0-19-8-19-19l0-12c0-11 8-19 19-19 0 0 76 0 83 0 8 0 16-8 14-17-1-8-9-49-10-54-1-5-7-12-16-12-8 0-68 0-68 0-12 0-16-2-24-12-9-11-83-100-83-100-1-1-2-1-2 0l0 313c0 7 6 15 15 15 0 0 195 0 203 0 8 0 15-7 13-16z"/>
<glyph unicode="&#103;" d="M306 438l41 0 0 67-51 0 0-1c-79-2-95-47-96-94l0-54-41 0 0-67 41 0 0-215 80 0 0 215 61 0 12 68-73 0 0 48c0 16 11 33 26 33z"/>
<glyph unicode="&#116;" d="M466 422c-7-4-28-12-49-14 13 7 33 30 37 48-12-8-41-20-55-20-16 17-39 28-64 28-50 0-89-40-89-88 0-7 1-14 2-20-66 2-139 35-183 92-27-47-4-99 27-118-11 0-30 2-39 10-1-30 14-71 68-86-10-6-29-4-37-3 3-26 40-60 80-60-14-17-68-47-128-37 41-25 88-39 139-39 143 0 255 116 248 259 0 0 0 0 0 1 0 0 0 0 0 1 0 0 0 0 0 1 13 9 31 24 43 45z"/>
<glyph unicode="&#89;" d="M409 383l0-67-27 0 0 67-67 0 0 28 67 0 0 66 27 0 0-66 67 0 0-28z m-150 68l-36 0c24-14 38-36 38-64 0-24-15-43-33-58-19-14-22-20-22-32 0-11 20-28 30-36 30-21 39-41 39-73 0-41-39-87-111-87-63 0-118 31-118 72 0 41 50 81 113 81 7 0 13 1 20 1-9 8-15 19-15 31 0 8 2 15 5 22-3-1-6 0-10 0-52 0-87 38-87 84 0 44 48 85 99 85 29 0 114 0 114 0z m-88-207c-44 0-83-27-83-59 0-33 32-58 75-58 62 0 83 23 83 56 0 4 0 8-1 12-5 19-22 28-46 45-9 2-18 4-28 4z m49 143c-5 38-34 69-64 70-29 0-48-29-43-67 5-39 32-71 62-72 29 0 50 30 45 69z"/>
<glyph unicode="&#90;" d="M454 282l-396 0c-8 0-15 5-17 12-2 8 1 16 7 20l198 135c6 5 14 5 20 0l198-135c6-4 9-12 7-20-2-7-9-12-17-12z m-340 35l284 0-142 97z m-6-206c-10 0-18 8-18 18l0 164c0 9 8 17 18 17 9 0 17-8 17-17l0-164c0-10-8-18-17-18z m296 0c-9 0-17 8-17 18l0 164c0 9 8 17 17 17 10 0 18-8 18-17l0-164c0-10-8-18-18-18z m-222 0c-10 0-18 8-18 18l0 164c0 9 8 17 18 17 9 0 17-8 17-17l0-164c0-10-8-18-17-18z m74 0c-10 0-17 8-17 18l0 164c0 9 7 17 17 17 10 0 17-8 17-17l0-164c0-10-7-18-17-18z m74 0c-9 0-17 8-17 18l0 164c0 9 8 17 17 17 10 0 17-8 17-17l0-164c0-10-7-18-17-18z m102-2l-352 0c-10 0-17 8-17 17 0 10 7 18 17 18l352 0c10 0 17-8 17-18 0-9-7-17-17-17z m35-50l-422 0c-9 0-17 8-17 18 0 9 8 17 17 17l422 0c9 0 17-8 17-17 0-10-8-18-17-18z"/>
<glyph unicode="&#48;" d="M400 152l-287 0c-6 0-10-4-10-10l0-97c0-5 4-10 10-10l287 0c5 0 9 5 9 10l0 97c0 6-4 10-9 10z m-10-97l-268 0 0 77 268 0z m19 235l0 177c0 5-4 10-9 10l-182 0c0 0-1 0-1 0-2 0-5-2-6-3l-105-105c-2-2-3-4-3-6 0-1 0-1 0-1l0-72-78 0 0-221 62 0 0 39-22 0 0 143 382 0 0-143-22 0 0-39 62 0 0 221z m-201 153l0-72-72 0z m-86-91l96 0c5 0 10 4 10 10l0 95 162 0 0-167-268 0z m272-153c0 12-10 23-23 23-13 0-23-11-23-23 0-13 10-23 23-23 13 0 23 10 23 23z m-79-5c5 0 10 4 10 10 0 5-5 10-10 10l-121 0c-6 0-10-5-10-10 0-6 4-10 10-10z"/>
<glyph unicode="&#49;" d="M256 320c18 0 32 14 32 32 0 17-14 32-32 32-17 0-32-15-32-32 0-18 15-32 32-32z m0 160c-123 0-224-101-224-224 0-124 101-224 224-224 124 0 224 100 224 224 0 123-100 224-224 224z m0-384c-88 0-160 71-160 160 0 88 72 160 160 160 89 0 160-72 160-160 0-89-71-160-160-160z m32 160c0 16-16 32-32 32-16 0-16 0-32 0-16 0-32-16-32-32l32 0c0-16 0-80 0-96 0-16 16-32 32-32 16 0 16 0 32 0 16 0 32 16 32 32l-32 0c0 16 0 80 0 96z"/>
<glyph unicode="&#50;" d="M483 433l-320-320-134 110-17-20 153-125 336 337z"/>
<glyph unicode="&#51;" d="M455 377c9 0 16 7 16 16 0 8-7 15-16 15-66 0-126-32-163-81l-160 0c-7 0-12-4-14-11l-46-143 0 213 107 0 0-26c0-9 7-15 15-15l33 0c8 0 15 6 15 15 0 8-7 15-15 15l-18 0 0 11c0 17-13 31-30 31l-107 0c-17 0-31-14-31-31l0-276c0-8 7-15 16-15 2 0 4 1 5 1 2 0 4-1 6-1l314 0c6 0 12 5 14 11l64 201c2 5 1 10-2 14-3 4-8 6-12 6l-113 0c31 31 75 50 122 50z m-30-80l-55-171-281 0 54 171 130 0c-12-25-20-52-21-80l-19 19c-6 6-16 6-22 0-6-6-6-16 0-22l46-46c3-3 7-4 11-4 4 0 8 1 11 4l46 46c6 6 6 16 0 22-6 6-15 6-21 0l-22-21c2 30 11 58 26 82z"/>
<glyph unicode="&#68;" d="M494 398c0 6-2 11-6 14l-71 71c-3 4-8 6-13 6-6 0-10-2-14-6l-23-22-232 0-117-117 0-321 373 0 0 264 97 98c4 3 6 8 6 13z m-275-184c2-2 4-3 7-3 2 0 5 1 7 3l170 170 15-15-177-177-29-1c-1 3-3 5-6 8-3 3-6 6-10 8l2 29 176 176 15-15-170-169c-4-4-4-10 0-14z m-86 190l0-58-58 0z m219-342l-295 0 0 264 96 0 0 96 176 0-164-164c-4-3-6-8-6-12l-4-76c-1-5 1-11 5-15 4-3 9-6 14-6l1 1 76 4c4 0 9 2 12 6l89 88z m79 321l-43 43 16 16 43-44z"/>
<glyph unicode="&#65;" d="M472 346l-21 22-146-146 0 83-305 0 0-305 305 0 0 179z m-197-315l-244 0 0 244 244 0 0-83-91-91-110 90-19-24 131-107 89 89z"/>
<glyph unicode="&#66;" d="M0 305l0-305 305 0 0 305z m31-30l244 0 0-244-244 0z"/>
<glyph unicode="&#69;" d="M256 487c-127 0-231-104-231-231 0-127 104-231 231-231 127 0 231 104 231 231 0 127-104 231-231 231z m121-352c-31-31-74-50-121-50-47 0-90 19-121 50-31 31-50 74-50 121 0 47 19 90 50 121 31 31 74 50 121 50 47 0 90-19 121-50 31-31 50-74 50-121 0-47-19-90-50-121z m-235 121c0 63 51 114 114 114 63 0 114-51 114-114 0-63-51-114-114-114-63 0-114 51-114 114z"/>
<glyph unicode="&#52;" d="M256 487c-127 0-231-104-231-231 0-127 104-231 231-231 127 0 231 104 231 231 0 127-104 231-231 231z m121-352c-31-31-74-50-121-50-47 0-90 19-121 50-31 31-50 74-50 121 0 47 19 90 50 121 31 31 74 50 121 50 47 0 90-19 121-50 31-31 50-74 50-121 0-47-19-90-50-121z"/>
<glyph unicode="&#53;" d="M410 323c3-3 7-4 11-4 4 0 8 1 11 4l47 47c2 2 4 6 4 10 0 4-2 8-4 11l-47 47c-6 6-16 6-22 0-6-6-6-16 0-22l20-20c-67-3-126-39-160-94l-150 0c-7 0-13-4-15-10l-45-144 0 214 107 0 0-27c0-8 7-15 15-15l33 0c8 0 15 7 15 15 0 9-7 16-15 16l-17 0 0 11c0 17-14 31-31 31l-107 0c-17 0-31-14-31-31l0-277c0-8 7-15 15-15 2 0 4 0 6 1 2-1 4-1 6-1l314 0c7 0 13 4 15 11l64 202c2 4 1 9-2 13-3 4-7 6-12 6l-128 0c30 37 75 61 125 64l-22-21c-6-6-6-16 0-22z m4-51l-55-171-282 0 54 171 123 0c-10-25-16-51-16-80 0-8 7-15 15-15 9 0 16 7 16 15 0 29 7 56 19 80z"/>
</font>
</defs>
</svg>
